<svg xmlns="http://www.w3.org/2000/svg" width="1000" height="1000">
<g>
<polygon points="0.000, 183.237 0.000, 159.212 53.531, 153.868 75.537, 170.865 74.328, 174.988 69.672, 176.726 " fill="none" stroke="black"/>
</g>
<g>
<polygon points="789.253, 476.509 746.709, 445.865 741.534, 431.756 783.084, 427.545 " fill="none" stroke="black"/>
</g>
<g>
<polygon points="576.382, 116.133 584.698, 96.806 607.774, 106.337 609.457, 111.832 594.058, 145.530 566.115, 157.721 " fill="none" stroke="black"/>
</g>
<g>
<polygon points="752.727, 547.229 756.095, 550.870 756.255, 590.565 753.715, 609.332 751.346, 612.580 723.133, 603.797 715.230, 558.821 739.399, 545.944 " fill="none" stroke="black"/>
</g>
<g>
<polygon points="182.545, 920.926 126.149, 927.335 98.907, 881.642 101.294, 873.441 107.398, 871.053 139.652, 876.460 169.706, 894.747 " fill="none" stroke="black"/>
</g>
<g>
<polygon points="543.768, 660.131 578.992, 671.370 574.966, 696.648 547.310, 676.962 " fill="none" stroke="black"/>
</g>
<g>
<polygon points="668.738, 0.000 681.959, 0.000 711.442, 58.895 710.165, 61.239 668.673, 71.203 652.463, 61.046 647.749, 19.544 " fill="none" stroke="black"/>
</g>
<g>
<polygon points="941.789, 715.390 939.749, 710.018 928.797, 661.893 930.247, 657.797 975.840, 690.661 " fill="none" stroke="black"/>
</g>
<g>
<polygon points="173.890, 533.299 157.743, 579.390 143.665, 588.517 118.509, 584.357 102.170, 543.526 110.699, 523.796 118.690, 517.304 " fill="none" stroke="black"/>
</g>
<g>
<polygon points="142.955, 326.525 136.049, 331.013 103.490, 341.821 82.276, 283.130 110.573, 269.888 151.218, 274.978 155.817, 281.674 " fill="none" stroke="black"/>
</g>
<g>
<polygon points="823.587, 99.308 796.955, 51.321 798.277, 50.491 841.042, 61.194 " fill="none" stroke="black"/>
</g>
<g>
<polygon points="121.839, 10.003 156.881, 58.902 153.505, 65.138 90.681, 42.555 92.392, 29.135 " fill="none" stroke="black"/>
</g>
<g>
<polygon points="709.064, 823.009 658.767, 785.705 656.330, 768.556 685.445, 764.201 693.892, 765.078 720.934, 815.511 " fill="none" stroke="black"/>
</g>
<g>
<polygon points="283.770, 139.215 268.067, 123.912 283.807, 95.053 309.801, 119.235 " fill="none" stroke="black"/>
</g>
<g>
<polygon points="614.659, 320.520 610.321, 343.811 550.940, 339.803 551.769, 323.590 573.425, 304.451 " fill="none" stroke="black"/>
</g>
<g>
<polygon points="357.382, 168.373 361.144, 217.632 360.044, 239.432 322.251, 241.906 319.434, 183.946 " fill="none" stroke="black"/>
</g>
<g>
<polygon points="1000.000, 174.962 1000.000, 255.298 934.261, 257.282 915.703, 247.987 990.980, 174.940 " fill="none" stroke="black"/>
</g>
<g>
<polygon points="896.949, 415.556 896.648, 425.156 841.838, 446.204 837.963, 438.506 837.959, 409.348 844.346, 383.567 " fill="none" stroke="black"/>
</g>
<g>
<polygon points="246.790, 259.264 257.481, 256.187 293.828, 246.249 316.634, 248.654 322.760, 290.986 286.252, 319.299 267.191, 308.867 239.984, 283.538 244.692, 261.575 " fill="none" stroke="black"/>
</g>
<g>
<polygon points="573.131, 0.000 646.233, 0.000 581.357, 22.535 " fill="none" stroke="black"/>
</g>
<g>
<polygon points="873.788, 206.127 852.499, 129.199 904.718, 134.463 887.208, 193.633 " fill="none" stroke="black"/>
</g>
<g>
<polygon points="224.446, 958.371 222.182, 949.293 222.843, 945.005 275.746, 872.720 277.142, 873.403 305.623, 937.601 " fill="none" stroke="black"/>
</g>
<g>
<polygon points="489.638, 824.602 507.814, 779.736 518.481, 823.480 508.042, 840.474 498.307, 842.008 " fill="none" stroke="black"/>
</g>
<g>
<polygon points="636.679, 263.263 644.779, 252.478 699.827, 244.885 701.692, 309.720 701.608, 309.787 683.745, 301.380 643.168, 277.583 " fill="none" stroke="black"/>
</g>
<g>
<polygon points="568.930, 217.773 574.349, 230.469 574.367, 230.519 509.341, 284.332 489.080, 286.497 461.308, 204.153 462.446, 196.808 468.675, 175.830 481.908, 164.183 536.571, 185.445 " fill="none" stroke="black"/>
</g>
<g>
<polygon points="187.455, 634.797 165.825, 624.597 188.705, 594.835 210.936, 594.391 217.416, 596.856 195.057, 633.447 " fill="none" stroke="black"/>
</g>
<g>
<polygon points="894.206, 825.542 917.760, 808.210 962.891, 820.842 960.998, 830.923 934.431, 876.965 " fill="none" stroke="black"/>
</g>
<g>
<polygon points="165.825, 624.597 187.455, 634.797 165.335, 688.700 163.174, 690.159 131.756, 656.743 154.949, 625.049 " fill="none" stroke="black"/>
</g>
<g>
<polygon points="756.095, 550.870 752.727, 547.229 776.937, 497.907 777.289, 497.778 817.793, 551.030 819.226, 559.198 804.297, 561.058 " fill="none" stroke="black"/>
</g>
<g>
<polygon points="110.699, 523.796 102.170, 543.526 34.547, 568.381 27.423, 563.529 45.456, 504.323 50.423, 496.235 " fill="none" stroke="black"/>
</g>
<g>
<polygon points="817.793, 551.030 777.289, 497.778 791.577, 481.803 838.842, 475.452 839.926, 476.716 834.823, 497.653 " fill="none" stroke="black"/>
</g>
<g>
<polygon points="586.123, 468.465 618.244, 455.848 628.121, 460.494 630.380, 508.807 625.527, 515.919 " fill="none" stroke="black"/>
</g>
<g>
<polygon points="628.121, 460.494 618.244, 455.848 615.791, 444.325 612.518, 424.031 648.588, 418.328 632.907, 458.600 " fill="none" stroke="black"/>
</g>
<g>
<polygon points="399.943, 728.286 397.647, 701.034 472.375, 701.194 485.722, 704.178 505.087, 741.866 499.931, 753.809 " fill="none" stroke="black"/>
</g>
<g>
<polygon points="312.442, 581.278 296.793, 553.745 296.028, 503.151 297.318, 501.013 379.079, 522.598 385.749, 530.916 379.451, 566.973 " fill="none" stroke="black"/>
</g>
<g>
<polygon points="526.423, 856.628 567.108, 840.344 576.083, 851.372 576.273, 854.325 542.455, 907.361 524.149, 882.409 " fill="none" stroke="black"/>
</g>
<g>
<polygon points="584.698, 96.806 576.382, 116.133 482.123, 152.117 481.554, 106.400 561.523, 72.964 " fill="none" stroke="black"/>
</g>
<g>
<polygon points="283.807, 95.053 268.067, 123.912 232.441, 109.210 234.669, 90.397 268.371, 63.101 287.021, 79.674 " fill="none" stroke="black"/>
</g>
<g>
<polygon points="343.697, 672.650 304.715, 721.112 289.158, 724.431 262.169, 713.868 312.253, 657.840 " fill="none" stroke="black"/>
</g>
<g>
<polygon points="0.000, 967.677 0.000, 824.538 5.952, 823.316 36.924, 824.398 92.952, 862.987 101.294, 873.441 98.907, 881.642 " fill="none" stroke="black"/>
</g>
<g>
<polygon points="1000.000, 555.583 1000.000, 641.318 941.264, 624.515 " fill="none" stroke="black"/>
</g>
<g>
<polygon points="69.672, 176.726 74.328, 174.988 83.935, 206.895 82.946, 207.725 28.287, 232.478 16.948, 226.126 " fill="none" stroke="black"/>
</g>
<g>
<polygon points="658.406, 825.124 706.462, 826.435 688.474, 882.818 667.208, 893.273 650.951, 885.246 638.612, 856.357 " fill="none" stroke="black"/>
</g>
<g>
<polygon points="844.316, 115.194 852.499, 129.199 873.788, 206.127 872.422, 209.946 837.945, 210.952 793.844, 198.708 794.327, 152.737 804.960, 127.174 807.244, 125.176 828.590, 112.774 " fill="none" stroke="black"/>
</g>
<g>
<polygon points="229.271, 0.000 281.735, 0.000 299.656, 22.766 296.463, 38.993 269.132, 57.683 " fill="none" stroke="black"/>
</g>
<g>
<polygon points="945.137, 420.179 907.995, 435.952 905.472, 436.430 896.648, 425.156 896.949, 415.556 918.380, 380.037 " fill="none" stroke="black"/>
</g>
<g>
<polygon points="970.046, 15.693 940.705, 36.760 873.879, 34.766 871.942, 27.720 871.992, 27.221 " fill="none" stroke="black"/>
</g>
<g>
<polygon points="782.043, 746.531 729.404, 813.859 720.934, 815.511 693.892, 765.078 720.106, 731.504 751.662, 712.257 781.899, 744.489 " fill="none" stroke="black"/>
</g>
<g>
<polygon points="506.875, 773.210 507.575, 774.285 507.814, 779.736 489.638, 824.602 471.659, 815.560 465.597, 800.794 " fill="none" stroke="black"/>
</g>
<g>
<polygon points="293.686, 482.984 283.999, 475.240 284.976, 415.052 334.277, 415.560 350.180, 424.685 " fill="none" stroke="black"/>
</g>
<g>
<polygon points="187.968, 523.745 194.218, 514.287 218.058, 507.741 249.937, 524.045 246.533, 554.064 235.820, 567.977 " fill="none" stroke="black"/>
</g>
<g>
<polygon points="567.785, 786.419 614.236, 754.147 612.164, 801.855 567.892, 811.311 562.928, 797.126 " fill="none" stroke="black"/>
</g>
<g>
<polygon points="89.693, 743.108 87.296, 751.475 53.694, 731.318 84.927, 715.287 " fill="none" stroke="black"/>
</g>
<g>
<polygon points="712.289, 1000.000 675.475, 1000.000 651.590, 959.828 644.845, 945.986 645.190, 945.219 661.840, 924.922 714.533, 982.753 " fill="none" stroke="black"/>
</g>
<g>
<polygon points="0.000, 380.506 0.000, 346.272 44.342, 333.245 71.105, 370.446 62.940, 402.458 60.710, 403.880 " fill="none" stroke="black"/>
</g>
<g>
<polygon points="576.083, 851.372 567.108, 840.344 564.201, 826.840 567.892, 811.311 612.164, 801.855 621.805, 812.632 618.931, 838.449 " fill="none" stroke="black"/>
</g>
<g>
<polygon points="361.144, 217.632 357.382, 168.373 367.191, 160.644 377.966, 164.000 382.422, 213.099 " fill="none" stroke="black"/>
</g>
<g>
<polygon points="505.087, 741.866 485.722, 704.178 503.894, 684.887 519.910, 725.057 " fill="none" stroke="black"/>
</g>
<g>
<polygon points="97.015, 353.383 137.322, 381.342 107.552, 414.797 93.691, 414.667 62.940, 402.458 71.105, 370.446 " fill="none" stroke="black"/>
</g>
<g>
<polygon points="1000.000, 809.052 1000.000, 888.751 977.561, 876.748 960.998, 830.923 962.891, 820.842 989.891, 808.849 " fill="none" stroke="black"/>
</g>
<g>
<polygon points="203.000, 819.195 202.777, 818.841 231.618, 789.724 256.586, 776.092 269.171, 791.371 263.517, 806.610 215.448, 818.118 " fill="none" stroke="black"/>
</g>
<g>
<polygon points="618.932, 365.897 618.998, 363.482 621.537, 362.340 676.181, 345.412 652.640, 393.336 " fill="none" stroke="black"/>
</g>
<g>
<polygon points="550.300, 1000.000 511.427, 1000.000 514.629, 982.480 541.049, 960.065 " fill="none" stroke="black"/>
</g>
<g>
<polygon points="727.050, 686.582 679.243, 681.306 666.870, 627.194 694.630, 614.908 720.675, 671.387 " fill="none" stroke="black"/>
</g>
<g>
<polygon points="0.000, 312.153 0.000, 293.990 17.500, 285.367 24.779, 285.958 19.004, 310.163 " fill="none" stroke="black"/>
</g>
<g>
<polygon points="352.021, 424.540 354.282, 396.907 376.953, 372.067 399.307, 373.964 403.660, 381.387 374.053, 431.974 372.722, 432.406 " fill="none" stroke="black"/>
</g>
<g>
<polygon points="152.884, 67.103 182.992, 109.014 113.965, 138.905 112.222, 137.740 106.281, 109.018 " fill="none" stroke="black"/>
</g>
<g>
<polygon points="139.652, 876.460 107.398, 871.053 149.215, 821.221 182.398, 804.829 202.777, 818.841 203.000, 819.195 210.967, 849.686 210.999, 849.851 " fill="none" stroke="black"/>
</g>
<g>
<polygon points="0.000, 456.686 0.000, 380.506 60.710, 403.880 37.295, 452.810 " fill="none" stroke="black"/>
</g>
<g>
<polygon points="1000.000, 694.858 1000.000, 733.539 956.027, 740.317 943.975, 721.802 " fill="none" stroke="black"/>
</g>
<g>
<polygon points="544.607, 349.263 562.758, 373.329 528.383, 434.036 495.921, 390.089 " fill="none" stroke="black"/>
</g>
<g>
<polygon points="609.457, 111.832 607.774, 106.337 611.536, 103.251 657.283, 90.406 659.645, 114.590 659.188, 122.266 624.941, 125.023 623.398, 124.910 " fill="none" stroke="black"/>
</g>
<g>
<polygon points="289.158, 724.431 304.715, 721.112 314.689, 743.213 302.385, 759.097 292.220, 753.869 " fill="none" stroke="black"/>
</g>
<g>
<polygon points="231.618, 789.724 202.777, 818.841 182.398, 804.829 179.384, 783.987 211.287, 747.470 " fill="none" stroke="black"/>
</g>
<g>
<polygon points="590.931, 514.371 551.246, 505.146 542.642, 495.032 528.768, 467.257 537.701, 453.254 566.209, 464.509 " fill="none" stroke="black"/>
</g>
<g>
<polygon points="580.581, 573.758 615.816, 531.811 622.780, 527.604 671.699, 554.024 634.601, 614.997 621.405, 617.194 " fill="none" stroke="black"/>
</g>
<g>
<polygon points="259.576, 714.589 242.278, 735.272 221.995, 734.716 217.786, 676.542 225.926, 669.846 238.571, 670.197 " fill="none" stroke="black"/>
</g>
<g>
<polygon points="374.053, 431.974 403.660, 381.387 464.418, 370.908 472.158, 382.375 435.117, 439.281 " fill="none" stroke="black"/>
</g>
<g>
<polygon points="34.709, 732.867 62.108, 783.113 36.924, 824.398 5.952, 823.316 " fill="none" stroke="black"/>
</g>
<g>
<polygon points="1000.000, 56.773 1000.000, 147.991 947.736, 94.511 " fill="none" stroke="black"/>
</g>
<g>
<polygon points="378.760, 91.941 325.447, 67.584 326.213, 59.429 337.408, 48.764 404.811, 66.932 " fill="none" stroke="black"/>
</g>
<g>
<polygon points="550.940, 339.803 610.321, 343.811 618.998, 363.482 618.932, 365.897 607.977, 377.628 588.268, 382.404 576.464, 381.998 562.758, 373.329 544.607, 349.263 545.213, 347.326 " fill="none" stroke="black"/>
</g>
<g>
<polygon points="126.149, 927.335 182.545, 920.926 222.182, 949.293 224.446, 958.371 209.596, 1000.000 182.976, 1000.000 136.032, 961.427 130.964, 951.379 " fill="none" stroke="black"/>
</g>
<g>
<polygon points="1000.000, 733.539 1000.000, 809.052 989.891, 808.849 955.280, 747.059 956.027, 740.317 " fill="none" stroke="black"/>
</g>
<g>
<polygon points="257.481, 256.187 246.790, 259.264 251.221, 219.617 263.599, 185.056 271.153, 182.787 281.116, 212.334 " fill="none" stroke="black"/>
</g>
<g>
<polygon points="523.453, 594.741 501.484, 589.054 478.297, 581.784 479.189, 533.716 531.709, 547.943 568.353, 576.464 554.185, 589.250 " fill="none" stroke="black"/>
</g>
<g>
<polygon points="118.509, 584.357 143.665, 588.517 154.949, 625.049 131.756, 656.743 114.524, 653.889 82.567, 642.224 80.358, 634.707 " fill="none" stroke="black"/>
</g>
<g>
<polygon points="146.987, 196.608 149.425, 166.911 187.687, 153.314 197.549, 193.509 159.427, 217.804 " fill="none" stroke="black"/>
</g>
<g>
<polygon points="124.825, 426.099 142.856, 435.220 148.157, 461.900 121.110, 487.444 103.263, 471.536 " fill="none" stroke="black"/>
</g>
<g>
<polygon points="574.349, 230.469 568.930, 217.773 614.496, 181.052 648.812, 186.539 647.625, 194.579 " fill="none" stroke="black"/>
</g>
<g>
<polygon points="213.266, 435.774 179.030, 469.124 148.157, 461.900 142.856, 435.220 170.627, 406.216 199.503, 407.651 " fill="none" stroke="black"/>
</g>
<g>
<polygon points="218.412, 735.747 162.632, 701.919 163.174, 690.159 165.335, 688.700 171.398, 686.567 217.786, 676.542 221.995, 734.716 " fill="none" stroke="black"/>
</g>
<g>
<polygon points="623.398, 124.910 624.941, 125.023 643.254, 139.983 636.608, 153.777 626.266, 152.286 " fill="none" stroke="black"/>
</g>
<g>
<polygon points="765.648, 848.798 729.404, 813.859 782.043, 746.531 817.507, 789.652 " fill="none" stroke="black"/>
</g>
<g>
<polygon points="868.043, 329.345 828.235, 311.916 823.505, 307.255 829.298, 288.118 832.365, 283.755 892.186, 241.304 897.633, 246.434 896.702, 252.668 " fill="none" stroke="black"/>
</g>
<g>
<polygon points="715.230, 558.821 723.133, 603.797 717.134, 606.145 696.054, 613.322 672.131, 553.993 680.190, 550.146 " fill="none" stroke="black"/>
</g>
<g>
<polygon points="749.861, 213.532 711.319, 227.807 676.884, 225.080 679.365, 206.024 690.267, 164.527 692.855, 162.788 706.177, 160.932 " fill="none" stroke="black"/>
</g>
<g>
<polygon points="719.013, 387.650 722.171, 368.507 779.918, 355.045 798.764, 368.777 787.632, 401.646 " fill="none" stroke="black"/>
</g>
<g>
<polygon points="666.870, 627.194 679.243, 681.306 634.153, 707.312 613.853, 637.866 621.405, 617.194 634.601, 614.997 " fill="none" stroke="black"/>
</g>
<g>
<polygon points="82.946, 207.725 83.935, 206.895 99.406, 215.719 110.573, 269.888 82.276, 283.130 65.940, 282.342 60.200, 277.747 58.357, 273.712 " fill="none" stroke="black"/>
</g>
<g>
<polygon points="169.706, 894.747 139.652, 876.460 210.999, 849.851 216.340, 858.574 213.875, 871.305 " fill="none" stroke="black"/>
</g>
<g>
<polygon points="443.275, 0.000 573.131, 0.000 581.357, 22.535 581.751, 23.739 561.523, 72.964 481.554, 106.400 442.923, 46.054 " fill="none" stroke="black"/>
</g>
<g>
<polygon points="917.760, 808.210 894.206, 825.542 859.045, 837.157 840.516, 811.022 836.679, 803.862 867.204, 770.572 901.314, 770.782 917.571, 806.125 " fill="none" stroke="black"/>
</g>
<g>
<polygon points="0.000, 346.272 0.000, 312.153 19.004, 310.163 44.491, 332.292 44.342, 333.245 " fill="none" stroke="black"/>
</g>
<g>
<polygon points="283.999, 475.240 293.686, 482.984 297.318, 501.013 296.028, 503.151 249.937, 524.045 218.058, 507.741 243.281, 459.365 " fill="none" stroke="black"/>
</g>
<g>
<polygon points="658.767, 785.705 709.064, 823.009 706.462, 826.435 658.406, 825.124 643.957, 807.826 " fill="none" stroke="black"/>
</g>
<g>
<polygon points="1000.000, 536.886 1000.000, 555.583 941.264, 624.515 937.536, 624.860 913.352, 604.684 901.982, 583.230 973.661, 530.117 " fill="none" stroke="black"/>
</g>
<g>
<polygon points="501.976, 630.078 501.484, 589.054 523.453, 594.741 513.305, 630.947 " fill="none" stroke="black"/>
</g>
<g>
<polygon points="309.594, 1000.000 209.596, 1000.000 224.446, 958.371 305.623, 937.601 318.123, 940.534 " fill="none" stroke="black"/>
</g>
<g>
<polygon points="0.000, 976.007 0.000, 967.677 98.907, 881.642 126.149, 927.335 130.964, 951.379 " fill="none" stroke="black"/>
</g>
<g>
<polygon points="542.496, 907.809 549.040, 916.689 553.528, 938.616 549.328, 942.710 498.088, 952.053 482.071, 943.419 478.499, 935.714 479.584, 932.351 493.738, 920.489 " fill="none" stroke="black"/>
</g>
<g>
<polygon points="406.002, 784.260 350.866, 835.369 334.265, 840.248 319.031, 812.116 318.954, 797.619 395.100, 753.530 " fill="none" stroke="black"/>
</g>
<g>
<polygon points="909.132, 1000.000 819.548, 1000.000 860.999, 959.185 895.248, 969.473 " fill="none" stroke="black"/>
</g>
<g>
<polygon points="275.746, 872.720 222.843, 945.005 213.875, 871.305 216.340, 858.574 269.464, 864.675 " fill="none" stroke="black"/>
</g>
<g>
<polygon points="375.422, 874.033 406.583, 864.029 420.939, 888.402 406.018, 946.447 393.160, 960.801 346.666, 936.061 " fill="none" stroke="black"/>
</g>
<g>
<polygon points="334.265, 840.248 350.866, 835.369 408.645, 849.200 406.583, 864.029 375.422, 874.033 333.465, 854.408 " fill="none" stroke="black"/>
</g>
<g>
<polygon points="807.244, 125.176 804.960, 127.174 757.695, 110.349 775.429, 83.732 " fill="none" stroke="black"/>
</g>
<g>
<polygon points="211.952, 0.000 229.271, 0.000 269.132, 57.683 268.371, 63.101 234.669, 90.397 191.326, 39.298 " fill="none" stroke="black"/>
</g>
<g>
<polygon points="188.182, 293.106 226.389, 289.589 214.751, 367.444 209.838, 364.141 190.549, 340.925 " fill="none" stroke="black"/>
</g>
<g>
<polygon points="435.117, 439.281 472.158, 382.375 495.921, 390.089 528.383, 434.036 537.803, 451.309 537.701, 453.254 528.768, 467.257 503.904, 481.463 439.203, 447.036 " fill="none" stroke="black"/>
</g>
<g>
<polygon points="0.000, 560.606 0.000, 504.137 45.456, 504.323 27.423, 563.529 " fill="none" stroke="black"/>
</g>
<g>
<polygon points="699.827, 244.885 644.779, 252.478 645.349, 251.485 676.884, 225.080 711.319, 227.807 " fill="none" stroke="black"/>
</g>
<g>
<polygon points="210.936, 594.391 188.705, 594.835 157.743, 579.390 173.890, 533.299 174.376, 533.147 " fill="none" stroke="black"/>
</g>
<g>
<polygon points="620.947, 725.799 622.524, 735.134 614.236, 754.147 567.785, 786.419 558.542, 753.008 579.465, 721.356 586.044, 718.425 " fill="none" stroke="black"/>
</g>
<g>
<polygon points="714.533, 982.753 661.840, 924.922 666.159, 905.796 719.199, 947.004 719.761, 973.544 " fill="none" stroke="black"/>
</g>
<g>
<polygon points="251.221, 219.617 246.790, 259.264 244.692, 261.575 202.785, 228.627 210.865, 209.716 " fill="none" stroke="black"/>
</g>
<g>
<polygon points="0.000, 504.137 0.000, 456.686 37.295, 452.810 46.179, 466.022 50.423, 496.235 45.456, 504.323 " fill="none" stroke="black"/>
</g>
<g>
<polygon points="839.926, 476.716 838.842, 475.452 841.838, 446.204 896.648, 425.156 905.472, 436.430 913.039, 490.365 896.332, 503.262 " fill="none" stroke="black"/>
</g>
<g>
<polygon points="799.357, 1000.000 712.289, 1000.000 714.533, 982.753 719.761, 973.544 775.469, 941.415 790.395, 963.334 " fill="none" stroke="black"/>
</g>
<g>
<polygon points="819.548, 1000.000 799.357, 1000.000 790.395, 963.334 846.797, 933.051 860.999, 959.185 " fill="none" stroke="black"/>
</g>
<g>
<polygon points="318.576, 351.666 313.242, 380.997 279.491, 380.851 269.661, 364.690 287.451, 325.116 " fill="none" stroke="black"/>
</g>
<g>
<polygon points="545.213, 347.326 544.607, 349.263 495.921, 390.089 472.158, 382.375 464.418, 370.908 457.705, 334.890 465.413, 316.701 477.019, 306.040 " fill="none" stroke="black"/>
</g>
<g>
<polygon points="542.642, 495.032 551.246, 505.146 576.570, 573.845 568.353, 576.464 531.709, 547.943 " fill="none" stroke="black"/>
</g>
<g>
<polygon points="481.357, 631.132 472.525, 594.493 475.464, 584.857 478.297, 581.784 501.484, 589.054 501.976, 630.078 " fill="none" stroke="black"/>
</g>
<g>
<polygon points="720.106, 731.504 693.892, 765.078 685.445, 764.201 680.683, 732.725 " fill="none" stroke="black"/>
</g>
<g>
<polygon points="1000.000, 255.298 1000.000, 321.515 965.333, 333.406 934.261, 257.282 " fill="none" stroke="black"/>
</g>
<g>
<polygon points="80.143, 94.724 106.281, 109.018 112.222, 137.740 75.537, 170.865 53.531, 153.868 39.406, 110.684 " fill="none" stroke="black"/>
</g>
<g>
<polygon points="393.005, 683.563 390.458, 680.050 394.000, 654.512 472.525, 594.493 481.357, 631.132 473.704, 655.972 " fill="none" stroke="black"/>
</g>
<g>
<polygon points="973.661, 530.117 901.982, 583.230 889.908, 571.328 896.332, 503.262 913.039, 490.365 914.164, 490.292 972.039, 528.224 " fill="none" stroke="black"/>
</g>
<g>
<polygon points="60.710, 403.880 62.940, 402.458 93.691, 414.667 102.134, 470.722 46.179, 466.022 37.295, 452.810 " fill="none" stroke="black"/>
</g>
<g>
<polygon points="832.365, 283.755 829.298, 288.118 807.137, 264.647 811.146, 260.655 828.362, 272.225 " fill="none" stroke="black"/>
</g>
<g>
<polygon points="323.424, 111.717 315.341, 84.176 325.447, 67.584 378.760, 91.941 359.055, 127.047 " fill="none" stroke="black"/>
</g>
<g>
<polygon points="644.494, 500.995 658.507, 461.316 691.375, 450.733 691.917, 453.083 682.554, 493.296 " fill="none" stroke="black"/>
</g>
<g>
<polygon points="701.692, 309.720 699.827, 244.885 711.319, 227.807 749.861, 213.532 755.617, 216.695 755.420, 277.075 " fill="none" stroke="black"/>
</g>
<g>
<polygon points="751.346, 612.580 753.715, 609.332 772.084, 602.465 821.571, 603.897 806.900, 644.409 764.155, 656.618 " fill="none" stroke="black"/>
</g>
<g>
<polygon points="246.533, 554.064 249.937, 524.045 296.028, 503.151 296.793, 553.745 274.301, 556.944 " fill="none" stroke="black"/>
</g>
<g>
<polygon points="581.976, 238.782 574.367, 230.519 574.349, 230.469 647.625, 194.579 648.295, 207.467 645.349, 251.485 644.779, 252.478 636.679, 263.263 " fill="none" stroke="black"/>
</g>
<g>
<polygon points="846.797, 933.051 790.395, 963.334 775.469, 941.415 776.198, 897.614 780.714, 893.010 838.503, 887.652 " fill="none" stroke="black"/>
</g>
<g>
<polygon points="753.715, 609.332 756.255, 590.565 800.150, 565.407 772.084, 602.465 " fill="none" stroke="black"/>
</g>
<g>
<polygon points="194.218, 514.287 187.968, 523.745 174.376, 533.147 173.890, 533.299 118.690, 517.304 121.110, 487.444 148.157, 461.900 179.030, 469.124 " fill="none" stroke="black"/>
</g>
<g>
<polygon points="875.821, 45.827 873.879, 34.766 940.705, 36.760 897.291, 79.999 888.571, 77.197 " fill="none" stroke="black"/>
</g>
<g>
<polygon points="350.866, 835.369 406.002, 784.260 413.117, 796.363 415.834, 831.049 408.645, 849.200 " fill="none" stroke="black"/>
</g>
<g>
<polygon points="350.180, 424.685 334.277, 415.560 313.242, 380.997 318.576, 351.666 350.364, 350.022 354.282, 396.907 352.021, 424.540 " fill="none" stroke="black"/>
</g>
<g>
<polygon points="240.851, 601.606 257.111, 609.237 285.141, 625.440 286.646, 630.746 238.571, 670.197 225.926, 669.846 216.996, 653.027 " fill="none" stroke="black"/>
</g>
<g>
<polygon points="142.040, 729.385 140.902, 747.364 106.911, 772.938 103.685, 773.720 98.793, 772.276 87.296, 751.475 89.693, 743.108 111.697, 717.638 " fill="none" stroke="black"/>
</g>
<g>
<polygon points="274.301, 556.944 296.793, 553.745 312.442, 581.278 285.141, 625.440 257.111, 609.237 " fill="none" stroke="black"/>
</g>
<g>
<polygon points="751.662, 712.257 720.106, 731.504 680.683, 732.725 629.752, 715.823 634.153, 707.312 679.243, 681.306 727.050, 686.582 745.416, 693.741 " fill="none" stroke="black"/>
</g>
<g>
<polygon points="785.789, 424.867 788.350, 406.471 837.959, 409.348 837.963, 438.506 " fill="none" stroke="black"/>
</g>
<g>
<polygon points="136.049, 331.013 142.955, 326.525 158.373, 343.197 160.340, 364.573 150.339, 382.581 137.868, 381.246 " fill="none" stroke="black"/>
</g>
<g>
<polygon points="267.191, 308.867 286.252, 319.299 287.451, 325.116 269.661, 364.690 230.631, 372.887 216.612, 370.768 215.965, 369.133 " fill="none" stroke="black"/>
</g>
<g>
<polygon points="513.305, 630.947 523.453, 594.741 554.185, 589.250 550.843, 642.446 541.624, 650.753 525.101, 650.357 " fill="none" stroke="black"/>
</g>
<g>
<polygon points="542.455, 907.361 576.273, 854.325 609.065, 893.998 606.084, 898.080 549.040, 916.689 542.496, 907.809 " fill="none" stroke="black"/>
</g>
<g>
<polygon points="573.425, 304.451 551.769, 323.590 540.404, 307.123 580.054, 246.338 " fill="none" stroke="black"/>
</g>
<g>
<polygon points="399.307, 373.964 376.953, 372.067 365.138, 335.392 376.257, 321.142 385.436, 326.494 " fill="none" stroke="black"/>
</g>
<g>
<polygon points="182.545, 920.926 169.706, 894.747 213.875, 871.305 222.843, 945.005 222.182, 949.293 " fill="none" stroke="black"/>
</g>
<g>
<polygon points="170.627, 406.216 142.856, 435.220 124.825, 426.099 107.552, 414.797 137.322, 381.342 137.868, 381.246 150.339, 382.581 " fill="none" stroke="black"/>
</g>
<g>
<polygon points="269.464, 864.675 216.340, 858.574 210.999, 849.851 210.967, 849.686 259.835, 826.431 266.250, 826.177 274.958, 840.056 " fill="none" stroke="black"/>
</g>
<g>
<polygon points="439.203, 447.036 503.904, 481.463 476.853, 528.050 421.955, 519.043 " fill="none" stroke="black"/>
</g>
<g>
<polygon points="652.640, 393.336 676.181, 345.412 703.006, 327.467 722.171, 368.507 719.013, 387.650 708.868, 412.879 698.272, 419.798 664.363, 409.137 " fill="none" stroke="black"/>
</g>
<g>
<polygon points="1000.000, 437.925 1000.000, 536.886 973.661, 530.117 972.039, 528.224 969.244, 460.705 982.621, 448.636 996.075, 439.258 " fill="none" stroke="black"/>
</g>
<g>
<polygon points="74.328, 174.988 75.537, 170.865 112.222, 137.740 113.965, 138.905 149.425, 166.911 146.987, 196.608 99.406, 215.719 83.935, 206.895 " fill="none" stroke="black"/>
</g>
<g>
<polygon points="403.660, 381.387 399.307, 373.964 385.436, 326.494 457.705, 334.890 464.418, 370.908 " fill="none" stroke="black"/>
</g>
<g>
<polygon points="990.980, 174.940 915.703, 247.987 897.633, 246.434 892.186, 241.304 872.422, 209.946 873.788, 206.127 887.208, 193.633 953.726, 160.461 " fill="none" stroke="black"/>
</g>
<g>
<polygon points="532.890, 688.285 531.884, 719.637 519.910, 725.057 503.894, 684.887 504.576, 680.207 " fill="none" stroke="black"/>
</g>
<g>
<polygon points="632.453, 1000.000 607.721, 1000.000 603.997, 972.414 644.845, 945.986 651.590, 959.828 " fill="none" stroke="black"/>
</g>
<g>
<polygon points="215.448, 818.118 263.517, 806.610 266.250, 826.177 259.835, 826.431 " fill="none" stroke="black"/>
</g>
<g>
<polygon points="190.549, 340.925 209.838, 364.141 160.340, 364.573 158.373, 343.197 " fill="none" stroke="black"/>
</g>
<g>
<polygon points="576.464, 381.998 588.268, 382.404 578.334, 428.075 552.325, 441.965 545.000, 445.719 " fill="none" stroke="black"/>
</g>
<g>
<polygon points="859.045, 837.157 894.206, 825.542 934.431, 876.965 933.974, 886.443 928.432, 898.438 918.927, 905.916 850.469, 876.382 " fill="none" stroke="black"/>
</g>
<g>
<polygon points="269.171, 791.371 256.586, 776.092 255.803, 757.367 292.220, 753.869 302.385, 759.097 314.786, 794.609 " fill="none" stroke="black"/>
</g>
<g>
<polygon points="468.675, 175.830 462.446, 196.808 385.678, 223.861 382.422, 213.099 377.966, 164.000 " fill="none" stroke="black"/>
</g>
<g>
<polygon points="162.632, 701.919 218.412, 735.747 211.287, 747.470 179.384, 783.987 140.902, 747.364 142.040, 729.385 " fill="none" stroke="black"/>
</g>
<g>
<polygon points="761.732, 0.000 820.880, 0.000 802.964, 46.440 798.277, 50.491 796.955, 51.321 777.662, 48.622 757.007, 37.769 " fill="none" stroke="black"/>
</g>
<g>
<polygon points="552.325, 441.965 578.334, 428.075 607.214, 420.415 612.518, 424.031 615.791, 444.325 " fill="none" stroke="black"/>
</g>
<g>
<polygon points="783.084, 427.545 741.534, 431.756 708.868, 412.879 719.013, 387.650 787.632, 401.646 788.350, 406.471 785.789, 424.867 " fill="none" stroke="black"/>
</g>
<g>
<polygon points="630.380, 508.807 628.121, 460.494 632.907, 458.600 658.507, 461.316 644.494, 500.995 " fill="none" stroke="black"/>
</g>
<g>
<polygon points="578.334, 428.075 588.268, 382.404 607.977, 377.628 607.214, 420.415 " fill="none" stroke="black"/>
</g>
<g>
<polygon points="274.958, 840.056 266.250, 826.177 263.517, 806.610 269.171, 791.371 314.786, 794.609 318.954, 797.619 319.031, 812.116 " fill="none" stroke="black"/>
</g>
<g>
<polygon points="28.287, 232.478 82.946, 207.725 58.357, 273.712 " fill="none" stroke="black"/>
</g>
<g>
<polygon points="781.899, 744.489 751.662, 712.257 745.416, 693.741 764.155, 656.618 806.900, 644.409 844.085, 669.310 852.982, 705.087 " fill="none" stroke="black"/>
</g>
<g>
<polygon points="618.244, 455.848 586.123, 468.465 566.209, 464.509 537.701, 453.254 537.803, 451.309 545.000, 445.719 552.325, 441.965 615.791, 444.325 " fill="none" stroke="black"/>
</g>
<g>
<polygon points="823.499, 244.907 828.362, 272.225 811.146, 260.655 " fill="none" stroke="black"/>
</g>
<g>
<polygon points="498.088, 952.053 549.328, 942.710 541.049, 960.065 514.629, 982.480 " fill="none" stroke="black"/>
</g>
<g>
<polygon points="652.463, 61.046 668.673, 71.203 657.283, 90.406 611.536, 103.251 625.433, 56.493 " fill="none" stroke="black"/>
</g>
<g>
<polygon points="518.481, 823.480 507.814, 779.736 507.575, 774.285 510.342, 775.597 544.230, 823.997 " fill="none" stroke="black"/>
</g>
<g>
<polygon points="1000.000, 1.393 1000.000, 56.773 947.736, 94.511 928.154, 104.060 897.291, 79.999 940.705, 36.760 970.046, 15.693 " fill="none" stroke="black"/>
</g>
<g>
<polygon points="931.498, 1000.000 909.132, 1000.000 895.248, 969.473 919.198, 930.868 956.400, 947.714 " fill="none" stroke="black"/>
</g>
<g>
<polygon points="103.490, 341.821 136.049, 331.013 137.868, 381.246 137.322, 381.342 97.015, 353.383 " fill="none" stroke="black"/>
</g>
<g>
<polygon points="822.020, 603.355 837.023, 573.542 868.910, 571.741 889.908, 571.328 901.982, 583.230 913.352, 604.684 861.547, 644.423 " fill="none" stroke="black"/>
</g>
<g>
<polygon points="314.689, 743.213 304.715, 721.112 343.697, 672.650 390.458, 680.050 393.005, 683.563 397.647, 701.034 399.943, 728.286 398.129, 733.648 " fill="none" stroke="black"/>
</g>
<g>
<polygon points="309.801, 119.235 283.807, 95.053 287.021, 79.674 315.341, 84.176 323.424, 111.717 " fill="none" stroke="black"/>
</g>
<g>
<polygon points="688.474, 882.818 706.462, 826.435 709.064, 823.009 720.934, 815.511 729.404, 813.859 765.648, 848.798 769.008, 855.389 780.714, 893.010 776.198, 897.614 731.971, 901.017 " fill="none" stroke="black"/>
</g>
<g>
<polygon points="562.928, 797.126 567.892, 811.311 564.201, 826.840 544.230, 823.997 510.342, 775.597 " fill="none" stroke="black"/>
</g>
<g>
<polygon points="691.375, 450.733 658.507, 461.316 632.907, 458.600 648.588, 418.328 664.363, 409.137 698.272, 419.798 " fill="none" stroke="black"/>
</g>
<g>
<polygon points="904.718, 134.463 852.499, 129.199 844.316, 115.194 888.571, 77.197 897.291, 79.999 928.154, 104.060 928.188, 111.992 " fill="none" stroke="black"/>
</g>
<g>
<polygon points="913.352, 604.684 937.536, 624.860 930.247, 657.797 928.797, 661.893 856.344, 706.111 852.982, 705.087 844.085, 669.310 861.547, 644.423 " fill="none" stroke="black"/>
</g>
<g>
<polygon points="719.761, 973.544 719.199, 947.004 731.971, 901.017 776.198, 897.614 775.469, 941.415 " fill="none" stroke="black"/>
</g>
<g>
<polygon points="896.949, 415.556 844.346, 383.567 843.487, 379.005 873.423, 342.880 922.839, 360.961 918.380, 380.037 " fill="none" stroke="black"/>
</g>
<g>
<polygon points="1000.000, 641.318 1000.000, 693.448 975.840, 690.661 930.247, 657.797 937.536, 624.860 941.264, 624.515 " fill="none" stroke="black"/>
</g>
<g>
<polygon points="656.330, 768.556 658.767, 785.705 643.957, 807.826 621.805, 812.632 612.164, 801.855 614.236, 754.147 622.524, 735.134 " fill="none" stroke="black"/>
</g>
<g>
<polygon points="400.935, 1000.000 309.594, 1000.000 318.123, 940.534 338.121, 934.799 346.666, 936.061 393.160, 960.801 " fill="none" stroke="black"/>
</g>
<g>
<polygon points="53.694, 731.318 87.296, 751.475 98.793, 772.276 62.108, 783.113 34.709, 732.867 34.408, 731.036 " fill="none" stroke="black"/>
</g>
<g>
<polygon points="928.797, 661.893 939.749, 710.018 859.450, 709.487 856.344, 706.111 " fill="none" stroke="black"/>
</g>
<g>
<polygon points="509.341, 284.332 574.367, 230.519 581.976, 238.782 580.054, 246.338 540.404, 307.123 " fill="none" stroke="black"/>
</g>
<g>
<polygon points="837.945, 210.952 872.422, 209.946 892.186, 241.304 832.365, 283.755 828.362, 272.225 823.499, 244.907 " fill="none" stroke="black"/>
</g>
<g>
<polygon points="887.208, 193.633 904.718, 134.463 928.188, 111.992 953.726, 160.461 " fill="none" stroke="black"/>
</g>
<g>
<polygon points="472.375, 701.194 397.647, 701.034 393.005, 683.563 473.704, 655.972 496.744, 667.678 " fill="none" stroke="black"/>
</g>
<g>
<polygon points="281.735, 0.000 349.087, 0.000 342.419, 8.506 299.656, 22.766 " fill="none" stroke="black"/>
</g>
<g>
<polygon points="807.137, 264.647 829.298, 288.118 823.505, 307.255 783.478, 304.922 756.358, 277.632 " fill="none" stroke="black"/>
</g>
<g>
<polygon points="683.745, 301.380 701.608, 309.787 703.006, 327.467 676.181, 345.412 621.537, 362.340 " fill="none" stroke="black"/>
</g>
<g>
<polygon points="675.475, 1000.000 632.453, 1000.000 651.590, 959.828 " fill="none" stroke="black"/>
</g>
<g>
<polygon points="0.000, 293.990 0.000, 256.828 17.500, 285.367 " fill="none" stroke="black"/>
</g>
<g>
<polygon points="720.675, 671.387 694.630, 614.908 696.054, 613.322 717.134, 606.145 " fill="none" stroke="black"/>
</g>
<g>
<polygon points="286.252, 319.299 322.760, 290.986 371.942, 306.984 376.257, 321.142 365.138, 335.392 350.364, 350.022 318.576, 351.666 287.451, 325.116 " fill="none" stroke="black"/>
</g>
<g>
<polygon points="511.427, 1000.000 466.534, 1000.000 482.071, 943.419 498.088, 952.053 514.629, 982.480 " fill="none" stroke="black"/>
</g>
<g>
<polygon points="567.785, 786.419 562.928, 797.126 510.342, 775.597 507.575, 774.285 506.875, 773.210 506.580, 769.373 558.542, 753.008 " fill="none" stroke="black"/>
</g>
<g>
<polygon points="939.749, 710.018 941.789, 715.390 943.132, 721.005 900.705, 738.698 865.788, 717.834 859.450, 709.487 " fill="none" stroke="black"/>
</g>
<g>
<polygon points="136.032, 961.427 182.976, 1000.000 74.051, 1000.000 " fill="none" stroke="black"/>
</g>
<g>
<polygon points="122.142, 0.000 211.952, 0.000 191.326, 39.298 156.881, 58.902 121.839, 10.003 " fill="none" stroke="black"/>
</g>
<g>
<polygon points="7.904, 704.284 70.312, 661.464 89.904, 710.404 84.927, 715.287 53.694, 731.318 34.408, 731.036 " fill="none" stroke="black"/>
</g>
<g>
<polygon points="111.697, 717.638 89.693, 743.108 84.927, 715.287 89.904, 710.404 107.824, 714.948 " fill="none" stroke="black"/>
</g>
<g>
<polygon points="503.894, 684.887 485.722, 704.178 472.375, 701.194 496.744, 667.678 500.562, 669.035 504.576, 680.207 " fill="none" stroke="black"/>
</g>
<g>
<polygon points="408.937, 265.669 465.413, 316.701 457.705, 334.890 385.436, 326.494 376.257, 321.142 371.942, 306.984 391.659, 270.768 " fill="none" stroke="black"/>
</g>
<g>
<polygon points="244.692, 261.575 239.984, 283.538 226.389, 289.589 188.182, 293.106 155.817, 281.674 151.218, 274.978 165.633, 234.246 202.785, 228.627 " fill="none" stroke="black"/>
</g>
<g>
<polygon points="343.697, 672.650 312.253, 657.840 286.646, 630.746 285.141, 625.440 312.442, 581.278 379.451, 566.973 383.346, 574.986 394.000, 654.512 390.458, 680.050 " fill="none" stroke="black"/>
</g>
<g>
<polygon points="465.597, 800.794 471.659, 815.560 462.955, 844.885 415.834, 831.049 413.117, 796.363 " fill="none" stroke="black"/>
</g>
<g>
<polygon points="645.190, 945.219 644.845, 945.986 603.997, 972.414 585.200, 956.202 605.736, 921.550 " fill="none" stroke="black"/>
</g>
<g>
<polygon points="322.760, 290.986 316.634, 248.654 322.251, 241.906 360.044, 239.432 372.597, 245.520 391.659, 270.768 371.942, 306.984 " fill="none" stroke="black"/>
</g>
<g>
<polygon points="466.534, 1000.000 400.935, 1000.000 393.160, 960.801 406.018, 946.447 478.499, 935.714 482.071, 943.419 " fill="none" stroke="black"/>
</g>
<g>
<polygon points="607.721, 1000.000 551.076, 1000.000 580.146, 954.758 585.200, 956.202 603.997, 972.414 " fill="none" stroke="black"/>
</g>
<g>
<polygon points="828.235, 311.916 868.043, 329.345 871.805, 338.487 873.423, 342.880 843.487, 379.005 805.491, 368.306 " fill="none" stroke="black"/>
</g>
<g>
<polygon points="179.030, 469.124 213.266, 435.774 233.143, 444.198 243.281, 459.365 218.058, 507.741 194.218, 514.287 " fill="none" stroke="black"/>
</g>
<g>
<polygon points="475.464, 584.857 472.525, 594.493 394.000, 654.512 383.346, 574.986 " fill="none" stroke="black"/>
</g>
<g>
<polygon points="360.044, 239.432 361.144, 217.632 382.422, 213.099 385.678, 223.861 372.597, 245.520 " fill="none" stroke="black"/>
</g>
<g>
<polygon points="234.669, 90.397 232.441, 109.210 205.958, 132.704 182.992, 109.014 152.884, 67.103 153.505, 65.138 156.881, 58.902 191.326, 39.298 " fill="none" stroke="black"/>
</g>
<g>
<polygon points="1000.000, 147.991 1000.000, 174.962 990.980, 174.940 953.726, 160.461 928.188, 111.992 928.154, 104.060 947.736, 94.511 " fill="none" stroke="black"/>
</g>
<g>
<polygon points="551.246, 505.146 590.931, 514.371 615.816, 531.811 580.581, 573.758 576.570, 573.845 " fill="none" stroke="black"/>
</g>
<g>
<polygon points="44.491, 332.292 19.004, 310.163 24.779, 285.958 60.200, 277.747 65.940, 282.342 " fill="none" stroke="black"/>
</g>
<g>
<polygon points="647.625, 194.579 648.812, 186.539 667.699, 170.913 690.267, 164.527 679.365, 206.024 648.295, 207.467 " fill="none" stroke="black"/>
</g>
<g>
<polygon points="903.468, 761.315 900.705, 738.698 943.132, 721.005 943.975, 721.802 956.027, 740.317 955.280, 747.059 946.504, 755.160 " fill="none" stroke="black"/>
</g>
<g>
<polygon points="551.076, 1000.000 550.300, 1000.000 541.049, 960.065 549.328, 942.710 553.528, 938.616 580.146, 954.758 " fill="none" stroke="black"/>
</g>
<g>
<polygon points="1000.000, 948.186 1000.000, 1000.000 931.498, 1000.000 956.400, 947.714 " fill="none" stroke="black"/>
</g>
<g>
<polygon points="547.310, 676.962 574.966, 696.648 586.044, 718.425 579.465, 721.356 531.884, 719.637 532.890, 688.285 " fill="none" stroke="black"/>
</g>
<g>
<polygon points="262.169, 713.868 289.158, 724.431 292.220, 753.869 255.803, 757.367 242.278, 735.272 259.576, 714.589 " fill="none" stroke="black"/>
</g>
<g>
<polygon points="681.959, 0.000 761.732, 0.000 757.007, 37.769 711.442, 58.895 " fill="none" stroke="black"/>
</g>
<g>
<polygon points="590.931, 514.371 566.209, 464.509 586.123, 468.465 625.527, 515.919 622.780, 527.604 615.816, 531.811 " fill="none" stroke="black"/>
</g>
<g>
<polygon points="701.608, 309.787 701.692, 309.720 755.420, 277.075 756.358, 277.632 783.478, 304.922 779.918, 355.045 722.171, 368.507 703.006, 327.467 " fill="none" stroke="black"/>
</g>
<g>
<polygon points="256.586, 776.092 231.618, 789.724 211.287, 747.470 218.412, 735.747 221.995, 734.716 242.278, 735.272 255.803, 757.367 " fill="none" stroke="black"/>
</g>
<g>
<polygon points="618.931, 838.449 621.805, 812.632 643.957, 807.826 658.406, 825.124 638.612, 856.357 " fill="none" stroke="black"/>
</g>
<g>
<polygon points="578.992, 671.370 543.768, 660.131 541.624, 650.753 550.843, 642.446 582.848, 650.777 " fill="none" stroke="black"/>
</g>
<g>
<polygon points="216.996, 653.027 225.926, 669.846 217.786, 676.542 171.398, 686.567 204.708, 645.254 " fill="none" stroke="black"/>
</g>
<g>
<polygon points="385.749, 530.916 379.079, 522.598 372.722, 432.406 374.053, 431.974 435.117, 439.281 439.203, 447.036 421.955, 519.043 " fill="none" stroke="black"/>
</g>
<g>
<polygon points="406.018, 946.447 420.939, 888.402 454.893, 887.925 479.584, 932.351 478.499, 935.714 " fill="none" stroke="black"/>
</g>
<g>
<polygon points="594.058, 145.530 609.457, 111.832 623.398, 124.910 626.266, 152.286 617.412, 159.676 " fill="none" stroke="black"/>
</g>
<g>
<polygon points="648.588, 418.328 612.518, 424.031 607.214, 420.415 607.977, 377.628 618.932, 365.897 652.640, 393.336 664.363, 409.137 " fill="none" stroke="black"/>
</g>
<g>
<polygon points="528.768, 467.257 542.642, 495.032 531.709, 547.943 479.189, 533.716 476.853, 528.050 503.904, 481.463 " fill="none" stroke="black"/>
</g>
<g>
<polygon points="508.042, 840.474 518.481, 823.480 544.230, 823.997 564.201, 826.840 567.108, 840.344 526.423, 856.628 " fill="none" stroke="black"/>
</g>
<g>
<polygon points="694.630, 614.908 666.870, 627.194 634.601, 614.997 671.699, 554.024 672.131, 553.993 696.054, 613.322 " fill="none" stroke="black"/>
</g>
<g>
<polygon points="838.503, 887.652 780.714, 893.010 769.008, 855.389 840.516, 811.022 859.045, 837.157 850.469, 876.382 " fill="none" stroke="black"/>
</g>
<g>
<polygon points="334.277, 415.560 284.976, 415.052 276.349, 409.622 279.491, 380.851 313.242, 380.997 " fill="none" stroke="black"/>
</g>
<g>
<polygon points="996.075, 439.258 982.621, 448.636 907.995, 435.952 945.137, 420.179 " fill="none" stroke="black"/>
</g>
<g>
<polygon points="871.942, 27.720 873.879, 34.766 875.821, 45.827 841.042, 61.194 798.277, 50.491 802.964, 46.440 " fill="none" stroke="black"/>
</g>
<g>
<polygon points="1000.000, 920.812 1000.000, 948.186 956.400, 947.714 919.198, 930.868 918.927, 905.916 928.432, 898.438 " fill="none" stroke="black"/>
</g>
<g>
<polygon points="113.965, 138.905 182.992, 109.014 205.958, 132.704 203.653, 141.609 187.687, 153.314 149.425, 166.911 " fill="none" stroke="black"/>
</g>
<g>
<polygon points="90.681, 42.555 153.505, 65.138 152.884, 67.103 106.281, 109.018 80.143, 94.724 72.599, 69.214 " fill="none" stroke="black"/>
</g>
<g>
<polygon points="775.429, 83.732 757.695, 110.349 724.414, 114.079 721.759, 106.187 710.165, 61.239 711.442, 58.895 757.007, 37.769 777.662, 48.622 " fill="none" stroke="black"/>
</g>
<g>
<polygon points="804.297, 561.058 819.226, 559.198 837.023, 573.542 822.020, 603.355 821.571, 603.897 772.084, 602.465 800.150, 565.407 " fill="none" stroke="black"/>
</g>
<g>
<polygon points="52.737, 0.000 122.142, 0.000 121.839, 10.003 92.392, 29.135 54.902, 3.699 " fill="none" stroke="black"/>
</g>
<g>
<polygon points="471.659, 815.560 489.638, 824.602 498.307, 842.008 478.085, 859.317 462.955, 844.885 " fill="none" stroke="black"/>
</g>
<g>
<polygon points="943.826, 351.753 917.508, 305.020 896.702, 252.668 897.633, 246.434 915.703, 247.987 934.261, 257.282 965.333, 333.406 947.973, 350.996 " fill="none" stroke="black"/>
</g>
<g>
<polygon points="819.226, 559.198 817.793, 551.030 834.823, 497.653 868.910, 571.741 837.023, 573.542 " fill="none" stroke="black"/>
</g>
<g>
<polygon points="626.266, 152.286 636.608, 153.777 667.699, 170.913 648.812, 186.539 614.496, 181.052 617.412, 159.676 " fill="none" stroke="black"/>
</g>
<g>
<polygon points="982.621, 448.636 969.244, 460.705 914.164, 490.292 913.039, 490.365 905.472, 436.430 907.995, 435.952 " fill="none" stroke="black"/>
</g>
<g>
<polygon points="741.534, 431.756 746.709, 445.865 743.481, 488.456 735.169, 490.268 691.917, 453.083 691.375, 450.733 698.272, 419.798 708.868, 412.879 " fill="none" stroke="black"/>
</g>
<g>
<polygon points="34.547, 568.381 102.170, 543.526 118.509, 584.357 80.358, 634.707 50.380, 608.225 " fill="none" stroke="black"/>
</g>
<g>
<polygon points="349.087, 0.000 443.275, 0.000 442.923, 46.054 404.811, 66.932 337.408, 48.764 342.419, 8.506 " fill="none" stroke="black"/>
</g>
<g>
<polygon points="693.053, 512.993 682.554, 493.296 691.917, 453.083 735.169, 490.268 722.255, 509.455 " fill="none" stroke="black"/>
</g>
<g>
<polygon points="933.974, 886.443 934.431, 876.965 960.998, 830.923 977.561, 876.748 " fill="none" stroke="black"/>
</g>
<g>
<polygon points="461.308, 204.153 489.080, 286.497 477.019, 306.040 465.413, 316.701 408.937, 265.669 " fill="none" stroke="black"/>
</g>
<g>
<polygon points="287.021, 79.674 268.371, 63.101 269.132, 57.683 296.463, 38.993 326.213, 59.429 325.447, 67.584 315.341, 84.176 " fill="none" stroke="black"/>
</g>
<g>
<polygon points="576.273, 854.325 576.083, 851.372 618.931, 838.449 638.612, 856.357 650.951, 885.246 609.065, 893.998 " fill="none" stroke="black"/>
</g>
<g>
<polygon points="118.690, 517.304 110.699, 523.796 50.423, 496.235 46.179, 466.022 102.134, 470.722 103.263, 471.536 121.110, 487.444 " fill="none" stroke="black"/>
</g>
<g>
<polygon points="210.967, 849.686 203.000, 819.195 215.448, 818.118 259.835, 826.431 " fill="none" stroke="black"/>
</g>
<g>
<polygon points="568.930, 217.773 536.571, 185.445 566.115, 157.721 594.058, 145.530 617.412, 159.676 614.496, 181.052 " fill="none" stroke="black"/>
</g>
<g>
<polygon points="624.941, 125.023 659.188, 122.266 662.421, 128.457 643.254, 139.983 " fill="none" stroke="black"/>
</g>
<g>
<polygon points="922.839, 360.961 873.423, 342.880 871.805, 338.487 917.508, 305.020 943.826, 351.753 " fill="none" stroke="black"/>
</g>
<g>
<polygon points="142.955, 326.525 155.817, 281.674 188.182, 293.106 190.549, 340.925 158.373, 343.197 " fill="none" stroke="black"/>
</g>
<g>
<polygon points="972.039, 528.224 914.164, 490.292 969.244, 460.705 " fill="none" stroke="black"/>
</g>
<g>
<polygon points="625.433, 56.493 611.536, 103.251 607.774, 106.337 584.698, 96.806 561.523, 72.964 581.751, 23.739 587.490, 26.052 " fill="none" stroke="black"/>
</g>
<g>
<polygon points="205.958, 132.704 232.441, 109.210 268.067, 123.912 283.770, 139.215 286.103, 173.631 271.153, 182.787 263.599, 185.056 239.314, 177.305 203.653, 141.609 " fill="none" stroke="black"/>
</g>
<g>
<polygon points="187.455, 634.797 195.057, 633.447 204.708, 645.254 171.398, 686.567 165.335, 688.700 " fill="none" stroke="black"/>
</g>
<g>
<polygon points="793.844, 198.708 837.945, 210.952 823.499, 244.907 811.146, 260.655 807.137, 264.647 756.358, 277.632 755.420, 277.075 755.617, 216.695 " fill="none" stroke="black"/>
</g>
<g>
<polygon points="543.768, 660.131 547.310, 676.962 532.890, 688.285 504.576, 680.207 500.562, 669.035 525.101, 650.357 541.624, 650.753 " fill="none" stroke="black"/>
</g>
<g>
<polygon points="217.416, 596.856 210.936, 594.391 174.376, 533.147 187.968, 523.745 235.820, 567.977 232.313, 594.889 " fill="none" stroke="black"/>
</g>
<g>
<polygon points="721.759, 106.187 724.414, 114.079 720.551, 133.994 706.177, 160.932 692.855, 162.788 662.421, 128.457 659.188, 122.266 659.645, 114.590 " fill="none" stroke="black"/>
</g>
<g>
<polygon points="646.233, 0.000 668.738, 0.000 647.749, 19.544 587.490, 26.052 581.751, 23.739 581.357, 22.535 " fill="none" stroke="black"/>
</g>
<g>
<polygon points="379.451, 566.973 385.749, 530.916 421.955, 519.043 476.853, 528.050 479.189, 533.716 478.297, 581.784 475.464, 584.857 383.346, 574.986 " fill="none" stroke="black"/>
</g>
<g>
<polygon points="319.434, 183.946 322.251, 241.906 316.634, 248.654 293.828, 246.249 281.116, 212.334 271.153, 182.787 286.103, 173.631 " fill="none" stroke="black"/>
</g>
<g>
<polygon points="143.665, 588.517 157.743, 579.390 188.705, 594.835 165.825, 624.597 154.949, 625.049 " fill="none" stroke="black"/>
</g>
<g>
<polygon points="379.079, 522.598 297.318, 501.013 293.686, 482.984 350.180, 424.685 352.021, 424.540 372.722, 432.406 " fill="none" stroke="black"/>
</g>
<g>
<polygon points="131.756, 656.743 163.174, 690.159 162.632, 701.919 142.040, 729.385 111.697, 717.638 107.824, 714.948 114.524, 653.889 " fill="none" stroke="black"/>
</g>
<g>
<polygon points="493.738, 920.489 479.584, 932.351 454.893, 887.925 477.606, 867.324 491.876, 878.594 " fill="none" stroke="black"/>
</g>
<g>
<polygon points="159.427, 217.804 197.549, 193.509 211.129, 207.648 210.865, 209.716 202.785, 228.627 165.633, 234.246 " fill="none" stroke="black"/>
</g>
<g>
<polygon points="680.190, 550.146 672.131, 553.993 671.699, 554.024 622.780, 527.604 625.527, 515.919 630.380, 508.807 644.494, 500.995 682.554, 493.296 693.053, 512.993 " fill="none" stroke="black"/>
</g>
<g>
<polygon points="277.142, 873.403 275.746, 872.720 269.464, 864.675 274.958, 840.056 319.031, 812.116 334.265, 840.248 333.465, 854.408 326.049, 864.353 " fill="none" stroke="black"/>
</g>
<g>
<polygon points="901.314, 770.782 867.204, 770.572 865.788, 717.834 900.705, 738.698 903.468, 761.315 " fill="none" stroke="black"/>
</g>
<g>
<polygon points="834.823, 497.653 839.926, 476.716 896.332, 503.262 889.908, 571.328 868.910, 571.741 " fill="none" stroke="black"/>
</g>
<g>
<polygon points="233.143, 444.198 213.266, 435.774 199.503, 407.651 216.612, 370.768 230.631, 372.887 262.013, 413.915 " fill="none" stroke="black"/>
</g>
<g>
<polygon points="0.000, 159.212 0.000, 108.660 39.406, 110.684 53.531, 153.868 " fill="none" stroke="black"/>
</g>
<g>
<polygon points="263.599, 185.056 251.221, 219.617 210.865, 209.716 211.129, 207.648 239.314, 177.305 " fill="none" stroke="black"/>
</g>
<g>
<polygon points="302.385, 759.097 314.689, 743.213 398.129, 733.648 395.100, 753.530 318.954, 797.619 314.786, 794.609 " fill="none" stroke="black"/>
</g>
<g>
<polygon points="868.570, 0.000 1000.000, 0.000 1000.000, 1.393 970.046, 15.693 871.992, 27.221 " fill="none" stroke="black"/>
</g>
<g>
<polygon points="235.820, 567.977 246.533, 554.064 274.301, 556.944 257.111, 609.237 240.851, 601.606 232.313, 594.889 " fill="none" stroke="black"/>
</g>
<g>
<polygon points="524.149, 882.409 542.455, 907.361 542.496, 907.809 493.738, 920.489 491.876, 878.594 " fill="none" stroke="black"/>
</g>
<g>
<polygon points="1000.000, 425.030 1000.000, 437.925 996.075, 439.258 945.137, 420.179 918.380, 380.037 922.839, 360.961 943.826, 351.753 947.973, 350.996 " fill="none" stroke="black"/>
</g>
<g>
<polygon points="195.057, 633.447 217.416, 596.856 232.313, 594.889 240.851, 601.606 216.996, 653.027 204.708, 645.254 " fill="none" stroke="black"/>
</g>
<g>
<polygon points="305.623, 937.601 277.142, 873.403 326.049, 864.353 338.121, 934.799 318.123, 940.534 " fill="none" stroke="black"/>
</g>
<g>
<polygon points="794.327, 152.737 793.844, 198.708 755.617, 216.695 749.861, 213.532 706.177, 160.932 720.551, 133.994 " fill="none" stroke="black"/>
</g>
<g>
<polygon points="685.445, 764.201 656.330, 768.556 622.524, 735.134 620.947, 725.799 629.752, 715.823 680.683, 732.725 " fill="none" stroke="black"/>
</g>
<g>
<polygon points="804.960, 127.174 794.327, 152.737 720.551, 133.994 724.414, 114.079 757.695, 110.349 " fill="none" stroke="black"/>
</g>
<g>
<polygon points="746.709, 445.865 789.253, 476.509 791.577, 481.803 777.289, 497.778 776.937, 497.907 743.481, 488.456 " fill="none" stroke="black"/>
</g>
<g>
<polygon points="723.133, 603.797 751.346, 612.580 764.155, 656.618 745.416, 693.741 727.050, 686.582 720.675, 671.387 717.134, 606.145 " fill="none" stroke="black"/>
</g>
<g>
<polygon points="679.365, 206.024 676.884, 225.080 645.349, 251.485 648.295, 207.467 " fill="none" stroke="black"/>
</g>
<g>
<polygon points="481.554, 106.400 482.123, 152.117 481.908, 164.183 468.675, 175.830 377.966, 164.000 367.191, 160.644 359.055, 127.047 378.760, 91.941 404.811, 66.932 442.923, 46.054 " fill="none" stroke="black"/>
</g>
<g>
<polygon points="146.987, 196.608 159.427, 217.804 165.633, 234.246 151.218, 274.978 110.573, 269.888 99.406, 215.719 " fill="none" stroke="black"/>
</g>
<g>
<polygon points="895.248, 969.473 860.999, 959.185 846.797, 933.051 838.503, 887.652 850.469, 876.382 918.927, 905.916 919.198, 930.868 " fill="none" stroke="black"/>
</g>
<g>
<polygon points="610.321, 343.811 614.659, 320.520 643.168, 277.583 683.745, 301.380 621.537, 362.340 618.998, 363.482 " fill="none" stroke="black"/>
</g>
<g>
<polygon points="820.880, 0.000 868.570, 0.000 871.992, 27.221 871.942, 27.720 802.964, 46.440 " fill="none" stroke="black"/>
</g>
<g>
<polygon points="365.138, 335.392 376.953, 372.067 354.282, 396.907 350.364, 350.022 " fill="none" stroke="black"/>
</g>
<g>
<polygon points="769.008, 855.389 765.648, 848.798 817.507, 789.652 836.679, 803.862 840.516, 811.022 " fill="none" stroke="black"/>
</g>
<g>
<polygon points="326.049, 864.353 333.465, 854.408 375.422, 874.033 346.666, 936.061 338.121, 934.799 " fill="none" stroke="black"/>
</g>
<g>
<polygon points="357.382, 168.373 319.434, 183.946 286.103, 173.631 283.770, 139.215 309.801, 119.235 323.424, 111.717 359.055, 127.047 367.191, 160.644 " fill="none" stroke="black"/>
</g>
<g>
<polygon points="796.955, 51.321 823.587, 99.308 828.590, 112.774 807.244, 125.176 775.429, 83.732 777.662, 48.622 " fill="none" stroke="black"/>
</g>
<g>
<polygon points="82.276, 283.130 103.490, 341.821 97.015, 353.383 71.105, 370.446 44.342, 333.245 44.491, 332.292 65.940, 282.342 " fill="none" stroke="black"/>
</g>
<g>
<polygon points="284.976, 415.052 283.999, 475.240 243.281, 459.365 233.143, 444.198 262.013, 413.915 276.349, 409.622 " fill="none" stroke="black"/>
</g>
<g>
<polygon points="0.000, 703.129 0.000, 639.632 50.380, 608.225 80.358, 634.707 82.567, 642.224 70.312, 661.464 7.904, 704.284 " fill="none" stroke="black"/>
</g>
<g>
<polygon points="614.659, 320.520 573.425, 304.451 580.054, 246.338 581.976, 238.782 636.679, 263.263 643.168, 277.583 " fill="none" stroke="black"/>
</g>
<g>
<polygon points="667.208, 893.273 688.474, 882.818 731.971, 901.017 719.199, 947.004 666.159, 905.796 " fill="none" stroke="black"/>
</g>
<g>
<polygon points="179.384, 783.987 182.398, 804.829 149.215, 821.221 106.911, 772.938 140.902, 747.364 " fill="none" stroke="black"/>
</g>
<g>
<polygon points="337.408, 48.764 326.213, 59.429 296.463, 38.993 299.656, 22.766 342.419, 8.506 " fill="none" stroke="black"/>
</g>
<g>
<polygon points="93.691, 414.667 107.552, 414.797 124.825, 426.099 103.263, 471.536 102.134, 470.722 " fill="none" stroke="black"/>
</g>
<g>
<polygon points="579.465, 721.356 558.542, 753.008 506.580, 769.373 499.931, 753.809 505.087, 741.866 519.910, 725.057 531.884, 719.637 " fill="none" stroke="black"/>
</g>
<g>
<polygon points="0.000, 220.907 0.000, 183.237 69.672, 176.726 16.948, 226.126 " fill="none" stroke="black"/>
</g>
<g>
<polygon points="0.000, 54.793 0.000, 46.064 41.561, 0.000 52.737, 0.000 54.902, 3.699 57.227, 57.391 " fill="none" stroke="black"/>
</g>
<g>
<polygon points="462.446, 196.808 461.308, 204.153 408.937, 265.669 391.659, 270.768 372.597, 245.520 385.678, 223.861 " fill="none" stroke="black"/>
</g>
<g>
<polygon points="0.000, 1000.000 0.000, 976.007 130.964, 951.379 136.032, 961.427 74.051, 1000.000 " fill="none" stroke="black"/>
</g>
<g>
<polygon points="500.562, 669.035 496.744, 667.678 473.704, 655.972 481.357, 631.132 501.976, 630.078 513.305, 630.947 525.101, 650.357 " fill="none" stroke="black"/>
</g>
<g>
<polygon points="82.567, 642.224 114.524, 653.889 107.824, 714.948 89.904, 710.404 70.312, 661.464 " fill="none" stroke="black"/>
</g>
<g>
<polygon points="668.673, 71.203 710.165, 61.239 721.759, 106.187 659.645, 114.590 657.283, 90.406 " fill="none" stroke="black"/>
</g>
<g>
<polygon points="54.902, 3.699 92.392, 29.135 90.681, 42.555 72.599, 69.214 57.227, 57.391 " fill="none" stroke="black"/>
</g>
<g>
<polygon points="550.843, 642.446 554.185, 589.250 568.353, 576.464 576.570, 573.845 580.581, 573.758 621.405, 617.194 613.853, 637.866 582.848, 650.777 " fill="none" stroke="black"/>
</g>
<g>
<polygon points="989.891, 808.849 962.891, 820.842 917.760, 808.210 917.571, 806.125 946.504, 755.160 955.280, 747.059 " fill="none" stroke="black"/>
</g>
<g>
<polygon points="262.013, 413.915 230.631, 372.887 269.661, 364.690 279.491, 380.851 276.349, 409.622 " fill="none" stroke="black"/>
</g>
<g>
<polygon points="917.571, 806.125 901.314, 770.782 903.468, 761.315 946.504, 755.160 " fill="none" stroke="black"/>
</g>
<g>
<polygon points="871.805, 338.487 868.043, 329.345 896.702, 252.668 917.508, 305.020 " fill="none" stroke="black"/>
</g>
<g>
<polygon points="239.984, 283.538 267.191, 308.867 215.965, 369.133 214.751, 367.444 226.389, 289.589 " fill="none" stroke="black"/>
</g>
<g>
<polygon points="149.215, 821.221 107.398, 871.053 101.294, 873.441 92.952, 862.987 103.685, 773.720 106.911, 772.938 " fill="none" stroke="black"/>
</g>
<g>
<polygon points="0.000, 256.828 0.000, 220.907 16.948, 226.126 28.287, 232.478 58.357, 273.712 60.200, 277.747 24.779, 285.958 17.500, 285.367 " fill="none" stroke="black"/>
</g>
<g>
<polygon points="844.085, 669.310 806.900, 644.409 821.571, 603.897 822.020, 603.355 861.547, 644.423 " fill="none" stroke="black"/>
</g>
<g>
<polygon points="150.339, 382.581 160.340, 364.573 209.838, 364.141 214.751, 367.444 215.965, 369.133 216.612, 370.768 199.503, 407.651 170.627, 406.216 " fill="none" stroke="black"/>
</g>
<g>
<polygon points="0.000, 108.660 0.000, 54.793 57.227, 57.391 72.599, 69.214 80.143, 94.724 39.406, 110.684 " fill="none" stroke="black"/>
</g>
<g>
<polygon points="576.382, 116.133 566.115, 157.721 536.571, 185.445 481.908, 164.183 482.123, 152.117 " fill="none" stroke="black"/>
</g>
<g>
<polygon points="98.793, 772.276 103.685, 773.720 92.952, 862.987 36.924, 824.398 62.108, 783.113 " fill="none" stroke="black"/>
</g>
<g>
<polygon points="789.253, 476.509 783.084, 427.545 785.789, 424.867 837.963, 438.506 841.838, 446.204 838.842, 475.452 791.577, 481.803 " fill="none" stroke="black"/>
</g>
<g>
<polygon points="312.253, 657.840 262.169, 713.868 259.576, 714.589 238.571, 670.197 286.646, 630.746 " fill="none" stroke="black"/>
</g>
<g>
<polygon points="537.803, 451.309 528.383, 434.036 562.758, 373.329 576.464, 381.998 545.000, 445.719 " fill="none" stroke="black"/>
</g>
<g>
<polygon points="1000.000, 321.515 1000.000, 425.030 947.973, 350.996 965.333, 333.406 " fill="none" stroke="black"/>
</g>
<g>
<polygon points="787.632, 401.646 798.764, 368.777 805.491, 368.306 843.487, 379.005 844.346, 383.567 837.959, 409.348 788.350, 406.471 " fill="none" stroke="black"/>
</g>
<g>
<polygon points="489.080, 286.497 509.341, 284.332 540.404, 307.123 551.769, 323.590 550.940, 339.803 545.213, 347.326 477.019, 306.040 " fill="none" stroke="black"/>
</g>
<g>
<polygon points="1000.000, 888.751 1000.000, 920.812 928.432, 898.438 933.974, 886.443 977.561, 876.748 " fill="none" stroke="black"/>
</g>
<g>
<polygon points="454.893, 887.925 420.939, 888.402 406.583, 864.029 408.645, 849.200 415.834, 831.049 462.955, 844.885 478.085, 859.317 477.606, 867.324 " fill="none" stroke="black"/>
</g>
<g>
<polygon points="647.749, 19.544 652.463, 61.046 625.433, 56.493 587.490, 26.052 " fill="none" stroke="black"/>
</g>
<g>
<polygon points="739.399, 545.944 715.230, 558.821 680.190, 550.146 693.053, 512.993 722.255, 509.455 " fill="none" stroke="black"/>
</g>
<g>
<polygon points="553.528, 938.616 549.040, 916.689 606.084, 898.080 605.736, 921.550 585.200, 956.202 580.146, 954.758 " fill="none" stroke="black"/>
</g>
<g>
<polygon points="211.129, 207.648 197.549, 193.509 187.687, 153.314 203.653, 141.609 239.314, 177.305 " fill="none" stroke="black"/>
</g>
<g>
<polygon points="844.316, 115.194 828.590, 112.774 823.587, 99.308 841.042, 61.194 875.821, 45.827 888.571, 77.197 " fill="none" stroke="black"/>
</g>
<g>
<polygon points="506.875, 773.210 465.597, 800.794 413.117, 796.363 406.002, 784.260 395.100, 753.530 398.129, 733.648 399.943, 728.286 499.931, 753.809 506.580, 769.373 " fill="none" stroke="black"/>
</g>
<g>
<polygon points="867.204, 770.572 836.679, 803.862 817.507, 789.652 782.043, 746.531 781.899, 744.489 852.982, 705.087 856.344, 706.111 859.450, 709.487 865.788, 717.834 " fill="none" stroke="black"/>
</g>
<g>
<polygon points="823.505, 307.255 828.235, 311.916 805.491, 368.306 798.764, 368.777 779.918, 355.045 783.478, 304.922 " fill="none" stroke="black"/>
</g>
<g>
<polygon points="756.255, 590.565 756.095, 550.870 804.297, 561.058 800.150, 565.407 " fill="none" stroke="black"/>
</g>
<g>
<polygon points="650.951, 885.246 667.208, 893.273 666.159, 905.796 661.840, 924.922 645.190, 945.219 605.736, 921.550 606.084, 898.080 609.065, 893.998 " fill="none" stroke="black"/>
</g>
<g>
<polygon points="776.937, 497.907 752.727, 547.229 739.399, 545.944 722.255, 509.455 735.169, 490.268 743.481, 488.456 " fill="none" stroke="black"/>
</g>
<g>
<polygon points="498.307, 842.008 508.042, 840.474 526.423, 856.628 524.149, 882.409 491.876, 878.594 477.606, 867.324 478.085, 859.317 " fill="none" stroke="black"/>
</g>
<g>
<polygon points="692.855, 162.788 690.267, 164.527 667.699, 170.913 636.608, 153.777 643.254, 139.983 662.421, 128.457 " fill="none" stroke="black"/>
</g>
<g>
<polygon points="620.947, 725.799 586.044, 718.425 574.966, 696.648 578.992, 671.370 582.848, 650.777 613.853, 637.866 634.153, 707.312 629.752, 715.823 " fill="none" stroke="black"/>
</g>
<g>
<polygon points="0.000, 639.632 0.000, 560.606 27.423, 563.529 34.547, 568.381 50.380, 608.225 " fill="none" stroke="black"/>
</g>
<g>
<polygon points="0.000, 46.064 0.000, 0.000 41.561, 0.000 " fill="none" stroke="black"/>
</g>
<g>
<polygon points="0.000, 824.538 0.000, 703.129 7.904, 704.284 34.408, 731.036 34.709, 732.867 5.952, 823.316 " fill="none" stroke="black"/>
</g>
<g>
<polygon points="293.828, 246.249 257.481, 256.187 281.116, 212.334 " fill="none" stroke="black"/>
</g>
<g>
<polygon points="1000.000, 693.448 1000.000, 694.858 943.975, 721.802 943.132, 721.005 941.789, 715.390 975.840, 690.661 " fill="none" stroke="black"/>
</g>
</svg>
